<?xml version="1.0" encoding="UTF-8" standalone="no"?>
<!-- Created with Inkscape (http://www.inkscape.org/) -->

<svg
   width="180"
   height="180"
   viewBox="0 0 47.625 47.625"
   version="1.1"
   id="svg5"
   inkscape:version="1.1 (c68e22c387, 2021-05-23)"
   sodipodi:docname="newPfpTextPath.svg"
   inkscape:export-xdpi="546.13336"
   inkscape:export-ydpi="546.13336"
   xmlns:inkscape="http://www.inkscape.org/namespaces/inkscape"
   xmlns:sodipodi="http://sodipodi.sourceforge.net/DTD/sodipodi-0.dtd"
   xmlns="http://www.w3.org/2000/svg"
   xmlns:svg="http://www.w3.org/2000/svg">
  <sodipodi:namedview
     id="namedview7"
     pagecolor="#505050"
     bordercolor="#eeeeee"
     borderopacity="1"
     inkscape:pageshadow="0"
     inkscape:pageopacity="0"
     inkscape:pagecheckerboard="0"
     inkscape:document-units="px"
     showgrid="false"
     inkscape:zoom="4"
     inkscape:cx="72.375"
     inkscape:cy="89.125"
     inkscape:window-width="1920"
     inkscape:window-height="1009"
     inkscape:window-x="-8"
     inkscape:window-y="-8"
     inkscape:window-maximized="1"
     inkscape:current-layer="text6184" />
  <defs
     id="defs2" />
  <g
     inkscape:label="Layer 1"
     inkscape:groupmode="layer"
     id="layer1">
    <rect
       style="opacity:0.997;fill:#5da2fa;fill-opacity:1;stroke:none;stroke-width:0.101071;stroke-linecap:round;stroke-linejoin:miter;stroke-miterlimit:4;stroke-dasharray:none;paint-order:stroke fill markers"
       id="rect846"
       width="47.625"
       height="47.625"
       x="0"
       y="0" />
    <g
       aria-label="da"
       id="text6184"
       style="font-weight:bold;font-size:14.9839px;line-height:1.25;font-family:Roboto;-inkscape-font-specification:'Roboto Bold';fill-opacity:0.924138;stroke-width:0.280949">
      <path
         d="m 10.252603,21.477369 q 0,-1.851039 0.826749,-2.948492 0.834065,-1.097454 2.275387,-1.097454 1.155985,0 1.909569,0.86333 v -4.038629 h 2.121744 v 11.237925 h -1.909569 l -0.102429,-0.841381 q -0.790167,0.987708 -2.033948,0.987708 -1.397424,0 -2.246121,-1.097453 -0.841382,-1.10477 -0.841382,-3.065554 z m 2.114428,0.153643 q 0,1.112087 0.387767,1.704712 0.387767,0.592625 1.126719,0.592625 0.980392,0 1.382791,-0.826749 v -3.124084 q -0.395083,-0.826749 -1.368159,-0.826749 -1.529118,0 -1.529118,2.480245 z"
         id="path2179" />
      <path
         d="m 23.612272,25.494049 q -0.146327,-0.285338 -0.212175,-0.709687 -0.768217,0.856014 -1.997365,0.856014 -1.163301,0 -1.931518,-0.673105 -0.760902,-0.673105 -0.760902,-1.697395 0,-1.258413 0.929178,-1.931518 0.936493,-0.673105 2.699736,-0.680421 h 0.973075 v -0.453614 q 0,-0.548727 -0.285338,-0.877963 -0.278021,-0.329236 -0.885279,-0.329236 -0.534094,0 -0.841381,0.256072 -0.299971,0.256073 -0.299971,0.70237 h -2.114427 q 0,-0.687737 0.424349,-1.273046 0.424348,-0.585308 1.199882,-0.914544 0.775534,-0.336553 1.741293,-0.336553 1.463272,0 2.319286,0.738952 0.86333,0.731636 0.86333,2.063213 v 3.431372 q 0.0073,1.126719 0.314603,1.704711 v 0.124378 z m -1.74861,-1.470588 q 0.468247,0 0.863331,-0.204858 0.395083,-0.212174 0.585308,-0.563359 v -1.360843 h -0.790166 q -1.58765,0 -1.690079,1.097454 l -0.0073,0.124378 q 0,0.395083 0.278021,0.651156 0.278022,0.256072 0.760901,0.256072 z"
         id="path2181" />
    </g>
    <g
       aria-label="113"
       id="text9938"
       style="font-weight:bold;font-size:11.2379px;line-height:1.25;font-family:Roboto;-inkscape-font-specification:'Roboto Bold';letter-spacing:-1.12379px;fill-opacity:0.878161;stroke-width:0.280949">
      <path
         d="m 29.521621,35.888615 h -1.585817 v -6.112803 l -1.893103,0.587136 v -1.289505 l 3.308815,-1.185247 h 0.170105 z"
         id="path2172" />
      <path
         d="M 34.845357,35.888615 H 33.25954 v -6.112803 l -1.893104,0.587136 v -1.289505 l 3.308816,-1.185247 h 0.170105 z"
         id="path2174" />
      <path
         d="m 37.930291,31.191524 h 0.845038 q 0.603598,0 0.894422,-0.301799 0.290825,-0.301799 0.290825,-0.80114 0,-0.482878 -0.290825,-0.751754 -0.285337,-0.268875 -0.790164,-0.268875 -0.455443,0 -0.762729,0.252414 -0.307286,0.246926 -0.307286,0.647496 h -1.585817 q 0,-0.625547 0.334722,-1.1194 0.34021,-0.499341 0.943808,-0.779191 0.609086,-0.27985 1.338891,-0.27985 1.267556,0 1.986386,0.609086 0.718831,0.603598 0.718831,1.668125 0,0.548726 -0.334723,1.009655 -0.334722,0.46093 -0.877961,0.707856 0.674933,0.24144 1.004168,0.724318 0.334723,0.482879 0.334723,1.141349 0,1.064528 -0.77919,1.706537 -0.773704,0.642009 -2.052234,0.642009 -1.196222,0 -1.95895,-0.631035 -0.757242,-0.631034 -0.757242,-1.668125 h 1.585817 q 0,0.449955 0.334723,0.735292 0.34021,0.285337 0.834063,0.285337 0.565187,0 0.883448,-0.296312 0.323748,-0.301799 0.323748,-0.795652 0,-1.196221 -1.316941,-1.196221 h -0.839551 z"
         id="path2176" />
    </g>
    <path
       sodipodi:type="star"
       style="opacity:0.997;fill:#ffb500;fill-opacity:1;stroke:none;stroke-width:0.382;stroke-linecap:round;stroke-linejoin:miter;stroke-miterlimit:4;stroke-dasharray:none;paint-order:stroke fill markers"
       id="path12396"
       inkscape:flatsided="false"
       sodipodi:sides="5"
       sodipodi:cx="73.5"
       sodipodi:cy="15"
       sodipodi:r1="10.357666"
       sodipodi:r2="5.6112862"
       sodipodi:arg1="-0.26179939"
       sodipodi:arg2="0.36651914"
       inkscape:rounded="0.18"
       inkscape:randomized="0"
       d="m 83.504737,12.319239 c 0.311572,1.162801 -4.334739,3.567803 -4.76615,4.691666 -0.431411,1.123864 1.412211,6.020117 0.402602,6.675765 -1.009609,0.655647 -4.73269,-3.020071 -5.934861,-3.083074 -1.202171,-0.063 -5.289074,3.203411 -6.224618,2.445822 -0.935545,-0.757589 1.409776,-5.434309 1.098204,-6.59711 -0.311572,-1.162802 -4.681039,-4.0403 -4.249628,-5.164164 0.431411,-1.123863 5.603979,-0.338517 6.613589,-0.994165 1.009609,-0.6556474 2.396032,-5.7004533 3.598203,-5.6374502 1.202171,0.063003 2.053674,5.2250938 2.989219,5.9826832 0.935544,0.757589 6.161868,0.517225 6.47344,1.680027 z"
       transform="matrix(0.20258819,0,0,0.20258819,13.477171,12.00138)"
       inkscape:transform-center-x="-0.031189603"
       inkscape:transform-center-y="-0.15401278" />
    <rect
       style="opacity:0.997;fill:#000000;fill-opacity:0.92;stroke:none;stroke-width:0.106867;stroke-linecap:round;stroke-linejoin:miter;stroke-miterlimit:4;stroke-dasharray:none;paint-order:stroke fill markers"
       id="rect20132"
       width="2.121335"
       height="7.9197431"
       x="27.16824"
       y="17.575748" />
  </g>
</svg>
