<svg width="1024" height="1024" viewBox="0 0 1024 1024" fill="none" xmlns="http://www.w3.org/2000/svg">
<g clip-path="url(#clip0_905_2)">
<circle cx="512" cy="512" r="512" fill="#1E0F40"/>
<path d="M200.008 441.344C200.008 427.008 202.909 414.464 208.712 403.712C214.514 392.789 222.45 384.341 232.52 378.368C242.76 372.395 254.194 369.408 266.824 369.408C277.746 369.408 287.901 371.968 297.288 377.088C306.674 382.037 313.842 388.608 318.792 396.8V322.56H342.344V512H318.792V485.632C314.184 493.995 307.357 500.907 298.312 506.368C289.266 511.659 278.685 514.304 266.568 514.304C254.109 514.304 242.76 511.232 232.52 505.088C222.45 498.944 214.514 490.325 208.712 479.232C202.909 468.139 200.008 455.509 200.008 441.344ZM318.792 441.6C318.792 431.019 316.658 421.803 312.392 413.952C308.125 406.101 302.322 400.128 294.984 396.032C287.816 391.765 279.88 389.632 271.176 389.632C262.472 389.632 254.536 391.68 247.368 395.776C240.2 399.872 234.482 405.845 230.216 413.696C225.949 421.547 223.816 430.763 223.816 441.344C223.816 452.096 225.949 461.483 230.216 469.504C234.482 477.355 240.2 483.413 247.368 487.68C254.536 491.776 262.472 493.824 271.176 493.824C279.88 493.824 287.816 491.776 294.984 487.68C302.322 483.413 308.125 477.355 312.392 469.504C316.658 461.483 318.792 452.181 318.792 441.6Z" fill="white"/>
<path d="M373.008 441.344C373.008 427.008 375.909 414.464 381.712 403.712C387.514 392.789 395.45 384.341 405.52 378.368C415.76 372.395 427.109 369.408 439.568 369.408C451.856 369.408 462.522 372.053 471.568 377.344C480.613 382.635 487.354 389.291 491.792 397.312V371.712H515.344V512H491.792V485.888C487.184 494.08 480.272 500.907 471.056 506.368C462.01 511.659 451.429 514.304 439.312 514.304C426.853 514.304 415.589 511.232 405.52 505.088C395.45 498.944 387.514 490.325 381.712 479.232C375.909 468.139 373.008 455.509 373.008 441.344ZM491.792 441.6C491.792 431.019 489.658 421.803 485.392 413.952C481.125 406.101 475.322 400.128 467.984 396.032C460.816 391.765 452.88 389.632 444.176 389.632C435.472 389.632 427.536 391.68 420.368 395.776C413.2 399.872 407.482 405.845 403.216 413.696C398.949 421.547 396.816 430.763 396.816 441.344C396.816 452.096 398.949 461.483 403.216 469.504C407.482 477.355 413.2 483.413 420.368 487.68C427.536 491.776 435.472 493.824 444.176 493.824C452.88 493.824 460.816 491.776 467.984 487.68C475.322 483.413 481.125 477.355 485.392 469.504C489.658 461.483 491.792 452.181 491.792 441.6Z" fill="white"/>
<path d="M578.008 371.712V512H554.712V371.712H578.008Z" fill="white"/>
<path d="M529.853 598.16V576.912H577.981V762H554.429V598.16H529.853Z" fill="white"/>
<path d="M611.853 598.16V576.912H659.981V762H636.429V598.16H611.853Z" fill="white"/>
<path d="M699.485 623.504C700.679 607.803 706.738 595.515 717.661 586.64C728.583 577.765 742.749 573.328 760.157 573.328C771.762 573.328 781.746 575.461 790.109 579.728C798.642 583.824 805.042 589.456 809.309 596.624C813.746 603.792 815.965 611.899 815.965 620.944C815.965 631.525 812.893 640.656 806.749 648.336C800.776 656.016 792.925 660.965 783.197 663.184V664.464C794.29 667.195 803.079 672.571 809.565 680.592C816.05 688.613 819.293 699.109 819.293 712.08C819.293 721.808 817.074 730.597 812.637 738.448C808.2 746.128 801.543 752.187 792.669 756.624C783.794 761.061 773.127 763.28 760.669 763.28C742.578 763.28 727.73 758.587 716.125 749.2C704.519 739.643 698.034 726.16 696.669 708.752H719.197C720.392 718.992 724.573 727.355 731.741 733.84C738.909 740.325 748.466 743.568 760.413 743.568C772.36 743.568 781.405 740.496 787.549 734.352C793.863 728.037 797.021 719.931 797.021 710.032C797.021 697.232 792.754 688.016 784.221 682.384C775.687 676.752 762.802 673.936 745.565 673.936H739.677V654.48H745.821C761.522 654.309 773.384 651.749 781.405 646.8C789.426 641.68 793.437 633.829 793.437 623.248C793.437 614.203 790.45 606.949 784.477 601.488C778.674 596.027 770.311 593.296 759.389 593.296C748.807 593.296 740.274 596.027 733.789 601.488C727.303 606.949 723.463 614.288 722.269 623.504H699.485Z" fill="white"/>
<path opacity="0.997" d="M587.741 329.011C588.433 331.592 578.119 336.931 577.161 339.426C576.203 341.92 580.296 352.79 578.054 354.245C575.814 355.701 567.549 347.541 564.88 347.401C562.212 347.261 553.139 354.512 551.062 352.831C548.985 351.148 554.192 340.767 553.5 338.186C552.808 335.604 543.109 329.217 544.066 326.722C545.024 324.227 556.507 325.971 558.748 324.515C560.989 323.06 564.067 311.861 566.735 312.001C569.404 312.14 571.294 323.6 573.371 325.282C575.448 326.963 587.05 326.43 587.741 329.011Z" fill="#FFB500"/>
</g>
<defs>
<clipPath id="clip0_905_2">
<rect width="1024" height="1024" fill="white"/>
</clipPath>
</defs>
</svg>
