<?xml version="1.0" encoding="UTF-8" standalone="no"?>
<!-- Created with Inkscape (http://www.inkscape.org/) -->

<svg
   width="277.8457"
   height="41.239857"
   viewBox="0 0 73.513343 10.91138"
   version="1.1"
   id="svg5"
   inkscape:version="1.1 (c68e22c387, 2021-05-23)"
   sodipodi:docname="textMarkWhitePath.svg"
   inkscape:export-xdpi="546.13336"
   inkscape:export-ydpi="546.13336"
   xmlns:inkscape="http://www.inkscape.org/namespaces/inkscape"
   xmlns:sodipodi="http://sodipodi.sourceforge.net/DTD/sodipodi-0.dtd"
   xmlns:xlink="http://www.w3.org/1999/xlink"
   xmlns="http://www.w3.org/2000/svg"
   xmlns:svg="http://www.w3.org/2000/svg">
  <sodipodi:namedview
     id="namedview7"
     pagecolor="#505050"
     bordercolor="#eeeeee"
     borderopacity="1"
     inkscape:pageshadow="0"
     inkscape:pageopacity="0"
     inkscape:pagecheckerboard="0"
     inkscape:document-units="px"
     showgrid="false"
     inkscape:zoom="2.8284271"
     inkscape:cx="144.78011"
     inkscape:cy="13.258252"
     inkscape:window-width="1920"
     inkscape:window-height="1009"
     inkscape:window-x="-8"
     inkscape:window-y="-8"
     inkscape:window-maximized="1"
     inkscape:current-layer="layer1"
     fit-margin-top="0"
     fit-margin-left="0"
     fit-margin-right="0"
     fit-margin-bottom="0" />
  <defs
     id="defs2">
    <rect
       x="118.08683"
       y="53.740116"
       width="257.03333"
       height="80.256622"
       id="rect5536" />
    <linearGradient
       inkscape:collect="always"
       id="linearGradient3284">
      <stop
         style="stop-color:#5da2fa;stop-opacity:1;"
         offset="0"
         id="stop3280" />
      <stop
         style="stop-color:#5da2fa;stop-opacity:0;"
         offset="1"
         id="stop3282" />
    </linearGradient>
    <radialGradient
       inkscape:collect="always"
       xlink:href="#linearGradient3284"
       id="radialGradient3286"
       cx="73.660034"
       cy="14.210477"
       fx="73.660034"
       fy="14.210477"
       r="10.050847"
       gradientTransform="matrix(1,0,0,0.96962457,0,0.43164927)"
       gradientUnits="userSpaceOnUse" />
  </defs>
  <g
     inkscape:label="Layer 1"
     inkscape:groupmode="layer"
     id="layer1"
     transform="translate(-17.471341,-18.041646)">
    <path
       sodipodi:type="star"
       style="opacity:1;fill:#ffb500;fill-opacity:1;stroke:url(#radialGradient3286);stroke-width:1.62213;stroke-linecap:round;stroke-linejoin:miter;stroke-miterlimit:4;stroke-dasharray:none;stroke-opacity:1;paint-order:stroke fill markers"
       id="path12396"
       inkscape:flatsided="false"
       sodipodi:sides="5"
       sodipodi:cx="73.5"
       sodipodi:cy="15"
       sodipodi:r1="10.357666"
       sodipodi:r2="5.6112862"
       sodipodi:arg1="-0.26179939"
       sodipodi:arg2="0.36651914"
       inkscape:rounded="0.18"
       inkscape:randomized="0"
       d="m 83.504737,12.319239 c 0.311572,1.162801 -4.334739,3.567803 -4.76615,4.691666 -0.431411,1.123864 1.412211,6.020117 0.402602,6.675765 -1.009609,0.655647 -4.73269,-3.020071 -5.934861,-3.083074 -1.202171,-0.063 -5.289074,3.203411 -6.224618,2.445822 -0.935545,-0.757589 1.409776,-5.434309 1.098204,-6.59711 -0.311572,-1.162802 -4.681039,-4.0403 -4.249628,-5.164164 0.431411,-1.123863 5.603979,-0.338517 6.613589,-0.994165 1.009609,-0.6556474 2.396032,-5.7004533 3.598203,-5.6374502 1.202171,0.063003 2.053674,5.2250938 2.989219,5.9826832 0.935544,0.757589 6.161868,0.517225 6.47344,1.680027 z"
       transform="matrix(0.5697682,0,0,0.52631954,-18.417531,16.018046)"
       inkscape:transform-center-x="-0.087719763"
       inkscape:transform-center-y="-0.40012176" />
    <g
       aria-label="daimond113"
       transform="matrix(0.26458333,0,0,0.26458333,0.5612661,3.928862)"
       id="text5534"
       style="font-weight:bold;font-size:40px;line-height:1.25;font-family:Roboto;-inkscape-font-specification:'Roboto Bold';white-space:pre;shape-inside:url(#rect5536);fill:#ffffff">
      <path
         d="m 119.375,78.017578 q 0,-4.941406 2.20703,-7.871094 2.22656,-2.929687 6.07422,-2.929687 3.08594,0 5.09766,2.304687 v -10.78125 h 5.66406 v 30 h -5.09766 l -0.27344,-2.246093 q -2.10937,2.636718 -5.42968,2.636718 -3.73047,0 -5.9961,-2.929687 -2.24609,-2.949219 -2.24609,-8.183594 z m 5.64453,0.410156 q 0,2.96875 1.03516,4.550782 1.03515,1.582031 3.00781,1.582031 2.61719,0 3.69141,-2.207031 v -8.339844 q -1.05469,-2.207031 -3.65235,-2.207031 -4.08203,0 -4.08203,6.621093 z"
         id="path2369" />
      <path
         d="m 155.03906,88.740234 q -0.39062,-0.761718 -0.5664,-1.894531 -2.05079,2.285156 -5.33204,2.285156 -3.10546,0 -5.15625,-1.796875 -2.03125,-1.796875 -2.03125,-4.53125 0,-3.359375 2.48047,-5.15625 2.5,-1.796875 7.20703,-1.816406 h 2.59766 v -1.210937 q 0,-1.464844 -0.76172,-2.34375 -0.74219,-0.878907 -2.36328,-0.878907 -1.42578,0 -2.24609,0.683594 -0.80078,0.683594 -0.80078,1.875 h -5.64454 q 0,-1.835937 1.13282,-3.398437 1.13281,-1.5625 3.20312,-2.441407 2.07031,-0.898437 4.64844,-0.898437 3.90625,0 6.19141,1.972656 2.30468,1.953125 2.30468,5.507813 v 9.160156 q 0.0195,3.007812 0.83985,4.550781 v 0.332031 z m -4.66797,-3.925781 q 1.25,0 2.30469,-0.546875 1.05469,-0.566406 1.5625,-1.503906 v -3.632813 h -2.10937 q -4.23829,0 -4.51172,2.929688 l -0.0195,0.332031 q 0,1.054688 0.74218,1.738281 0.74219,0.683594 2.03125,0.683594 z"
         id="path2371" />
      <path
         d="m 170.19531,88.740234 h -5.66406 V 67.607422 h 5.66406 z m -5.99609,-26.601562 q 0,-1.269531 0.83984,-2.089844 0.85938,-0.820312 2.32422,-0.820312 1.44531,0 2.30469,0.820312 0.85937,0.820313 0.85937,2.089844 0,1.289062 -0.8789,2.109375 -0.85938,0.820312 -2.28516,0.820312 -1.42578,0 -2.30469,-0.820312 -0.85937,-0.820313 -0.85937,-2.109375 z"
         id="path2373" />
      <path
         d="m 180.13672,67.607422 0.17578,2.363281 q 2.24609,-2.753906 6.07422,-2.753906 4.08203,0 5.60547,3.222656 2.22656,-3.222656 6.34765,-3.222656 3.4375,0 5.11719,2.011719 1.67969,1.992187 1.67969,6.015625 v 13.496093 h -5.66406 V 75.263672 q 0,-1.796875 -0.70313,-2.617188 -0.70312,-0.839843 -2.48047,-0.839843 -2.53906,0 -3.51562,2.421875 l 0.0195,14.511718 h -5.64453 V 75.283203 q 0,-1.835937 -0.72266,-2.65625 -0.72266,-0.820312 -2.46094,-0.820312 -2.40234,0 -3.47656,1.992187 v 14.941406 h -5.64453 V 67.607422 Z"
         id="path2375" />
      <path
         d="m 208.59375,77.978516 q 0,-3.144532 1.21094,-5.605469 1.21093,-2.460938 3.47656,-3.808594 2.28516,-1.347656 5.29297,-1.347656 4.27734,0 6.97265,2.617187 2.71485,2.617188 3.02735,7.109375 l 0.0391,1.445313 q 0,4.863281 -2.71484,7.8125 -2.71485,2.929687 -7.28516,2.929687 -4.57031,0 -7.30469,-2.929687 -2.71484,-2.929688 -2.71484,-7.96875 z m 5.64453,0.410156 q 0,3.007812 1.13281,4.609375 1.13282,1.582031 3.24219,1.582031 2.05078,0 3.20313,-1.5625 1.15234,-1.582031 1.15234,-5.039062 0,-2.949219 -1.15234,-4.570313 -1.15235,-1.621094 -3.24219,-1.621094 -2.07031,0 -3.20313,1.621094 -1.13281,1.601563 -1.13281,4.980469 z"
         id="path2377" />
      <path
         d="m 237.28516,67.607422 0.17578,2.441406 q 2.26562,-2.832031 6.07422,-2.832031 3.35937,0 5,1.972656 1.64062,1.972656 1.67968,5.898438 v 13.652343 h -5.64453 V 75.224609 q 0,-1.796875 -0.78125,-2.597656 -0.78125,-0.820312 -2.59765,-0.820312 -2.38282,0 -3.57422,2.03125 v 14.902343 h -5.64453 V 67.607422 Z"
         id="path2379" />
      <path
         d="m 253.61328,78.017578 q 0,-4.941406 2.20703,-7.871094 2.22656,-2.929687 6.07422,-2.929687 3.08594,0 5.09766,2.304687 v -10.78125 h 5.66406 v 30 h -5.09766 l -0.27343,-2.246093 q -2.10938,2.636718 -5.42969,2.636718 -3.73047,0 -5.9961,-2.929687 -2.24609,-2.949219 -2.24609,-8.183594 z m 5.64453,0.410156 q 0,2.96875 1.03516,4.550782 1.03515,1.582031 3.00781,1.582031 2.61719,0 3.69141,-2.207031 v -8.339844 q -1.05469,-2.207031 -3.65235,-2.207031 -4.08203,0 -4.08203,6.621093 z"
         id="path2381" />
      <path
         d="m 290.50781,88.740234 h -5.64453 V 66.982422 l -6.73828,2.089844 v -4.589844 l 11.77734,-4.21875 h 0.60547 z"
         id="path2383" />
      <path
         d="M 313.45703,88.740234 H 307.8125 V 66.982422 l -6.73828,2.089844 v -4.589844 l 11.77734,-4.21875 h 0.60547 z"
         id="path2385" />
      <path
         d="m 328.4375,72.021484 h 3.00781 q 2.14844,0 3.1836,-1.074218 1.03515,-1.074219 1.03515,-2.851563 0,-1.71875 -1.03515,-2.675781 -1.01563,-0.957031 -2.8125,-0.957031 -1.6211,0 -2.71485,0.898437 -1.09375,0.878906 -1.09375,2.304688 h -5.64453 q 0,-2.226563 1.19141,-3.984375 1.21093,-1.777344 3.35937,-2.773438 2.16797,-0.996094 4.76563,-0.996094 4.51172,0 7.07031,2.167969 2.55859,2.148438 2.55859,5.9375 0,1.953125 -1.1914,3.59375 -1.19141,1.640625 -3.125,2.519531 2.40234,0.859375 3.57422,2.578125 1.1914,1.71875 1.1914,4.0625 0,3.789063 -2.77344,6.074219 -2.7539,2.285156 -7.30468,2.285156 -4.25782,0 -6.97266,-2.246093 -2.69531,-2.246094 -2.69531,-5.9375 h 5.64453 q 0,1.601562 1.19141,2.617187 1.21093,1.015625 2.96875,1.015625 2.01171,0 3.14453,-1.054687 1.15234,-1.074219 1.15234,-2.832032 0,-4.257812 -4.6875,-4.257812 h -2.98828 z"
         id="path2387" />
    </g>
  </g>
</svg>
