<?xml version="1.0" standalone="no"?>
<!DOCTYPE svg PUBLIC "-//W3C//DTD SVG 20010904//EN"
 "http://www.w3.org/TR/2001/REC-SVG-20010904/DTD/svg10.dtd">
<svg version="1.0" xmlns="http://www.w3.org/2000/svg"
 width="700.000000pt" height="700.000000pt" viewBox="0 0 700.000000 700.000000"
 preserveAspectRatio="xMidYMid meet">
<metadata>
Created by potrace 1.14, written by Peter Selinger 2001-2017
</metadata>
<g transform="translate(0.000000,700.000000) scale(0.100000,-0.100000)"
fill="#000000" stroke="none">
<path d="M3305 6994 c-746 -49 -1422 -309 -2000 -770 -141 -112 -415 -387
-529 -529 -273 -341 -502 -775 -626 -1185 -50 -169 -104 -430 -126 -620 -24
-198 -24 -582 0 -780 79 -671 332 -1277 752 -1805 113 -141 388 -416 529 -529
526 -419 1134 -672 1805 -752 198 -24 582 -24 780 0 671 79 1278 332 1805 752
141 113 416 388 529 529 419 526 672 1134 752 1805 24 198 24 582 0 780 -80
671 -333 1280 -752 1805 -113 141 -388 416 -529 529 -445 354 -951 592 -1490
701 -93 19 -231 41 -305 50 -134 15 -481 26 -595 19z m598 -2179 c13 -36 18
-40 57 -47 62 -11 67 -21 25 -54 -37 -28 -37 -29 -32 -81 3 -32 2 -53 -4 -53
-6 0 -27 10 -49 22 -37 22 -39 22 -75 5 -44 -21 -69 -22 -62 -3 3 8 9 31 13
51 6 32 3 40 -26 70 -18 18 -29 38 -26 44 4 6 27 11 51 11 40 0 46 3 61 33 35
68 44 69 67 2z m-1563 -665 l0 -650 -80 0 -80 0 0 86 0 87 -29 -37 c-189 -238
-585 -191 -724 86 -42 83 -57 152 -57 264 0 122 22 202 78 290 70 107 170 172
303 194 136 23 286 -24 379 -120 l50 -51 0 250 0 251 80 0 80 0 0 -650z m763
315 c88 -18 158 -57 213 -118 l44 -49 0 81 0 81 80 0 80 0 0 -480 0 -480 -80
0 -80 0 0 80 0 81 -52 -54 c-164 -166 -434 -167 -607 -2 -101 97 -151 221
-151 380 0 244 139 433 353 480 81 18 118 18 200 0z m847 -485 l0 -480 -80 0
-80 0 0 480 0 480 80 0 80 0 0 -480z m1422 -929 c251 -98 280 -443 47 -560
l-61 -31 28 -10 c82 -29 144 -82 182 -155 38 -73 43 -206 11 -289 -66 -176
-279 -265 -507 -211 -158 37 -259 132 -298 280 -23 86 -24 85 64 85 l77 0 18
-60 c20 -68 66 -123 132 -155 31 -16 61 -20 135 -20 82 0 101 3 137 24 84 48
125 150 103 257 -24 114 -112 170 -290 182 l-95 7 0 65 0 65 85 6 c189 14 269
68 278 188 6 77 -10 122 -58 165 -49 44 -105 59 -195 54 -110 -7 -179 -56
-212 -149 l-18 -49 -77 0 c-90 0 -88 -3 -58 93 34 110 129 198 250 231 81 23
248 16 322 -13z m-1422 -626 l0 -635 -80 0 -80 0 0 560 0 560 -85 0 -85 0 0
75 0 75 165 0 165 0 0 -635z m560 0 l0 -635 -80 0 -80 0 0 560 0 560 -85 0
-85 0 0 75 0 75 165 0 165 0 0 -635z"/>
<path d="M1715 4302 c-99 -47 -156 -127 -177 -250 -20 -117 10 -237 81 -322
74 -91 232 -126 353 -80 145 54 227 218 199 396 -27 178 -148 284 -324 284
-58 0 -83 -5 -132 -28z"/>
<path d="M2927 4316 c-137 -51 -208 -166 -208 -336 0 -224 133 -360 340 -348
127 7 214 68 270 188 22 48 25 69 26 160 0 93 -3 112 -26 160 -35 74 -76 120
-141 155 -44 24 -67 30 -138 32 -56 2 -98 -2 -123 -11z"/>
</g>
</svg>
