<svg width="2077" height="235" viewBox="0 0 2077 235" fill="none" xmlns="http://www.w3.org/2000/svg">
<path d="M336.014 146.717C336.014 129.819 339.434 115.033 346.274 102.36C353.113 89.4851 362.468 79.5273 374.337 72.4865C386.407 65.4457 399.885 61.9252 414.771 61.9252C427.646 61.9252 439.615 64.9427 450.679 70.9777C461.743 76.8116 470.192 84.5565 476.026 94.2125V6.705H503.787V230H476.026V198.92C470.595 208.777 462.548 216.924 451.886 223.361C441.224 229.598 428.752 232.716 414.469 232.716C399.784 232.716 386.407 229.095 374.337 221.853C362.468 214.611 353.113 204.452 346.274 191.376C339.434 178.3 336.014 163.414 336.014 146.717ZM476.026 147.019C476.026 134.546 473.512 123.683 468.483 114.43C463.453 105.176 456.614 98.1352 447.964 93.3072C439.515 88.2781 430.16 85.7635 419.901 85.7635C409.641 85.7635 400.287 88.1775 391.838 93.0055C383.389 97.8335 376.65 104.874 371.621 114.128C366.592 123.382 364.077 134.245 364.077 146.717C364.077 159.39 366.592 170.455 371.621 179.909C376.65 189.163 383.389 196.305 391.838 201.334C400.287 206.162 409.641 208.576 419.901 208.576C430.16 208.576 439.515 206.162 447.964 201.334C456.614 196.305 463.453 189.163 468.483 179.909C473.512 170.455 476.026 159.491 476.026 147.019ZM539.931 146.717C539.931 129.819 543.351 115.033 550.191 102.36C557.03 89.4851 566.385 79.5273 578.254 72.4865C590.324 65.4457 603.701 61.9252 618.386 61.9252C632.87 61.9252 645.443 65.0433 656.105 71.2795C666.767 77.5157 674.713 85.3612 679.943 94.816V64.641H707.704V230H679.943V199.221C674.512 208.877 666.365 216.924 655.502 223.361C644.84 229.598 632.367 232.716 618.085 232.716C603.399 232.716 590.122 229.095 578.254 221.853C566.385 214.611 557.03 204.452 550.191 191.376C543.351 178.3 539.931 163.414 539.931 146.717ZM679.943 147.019C679.943 134.546 677.429 123.683 672.4 114.43C667.37 105.176 660.531 98.1352 651.881 93.3072C643.432 88.2781 634.077 85.7635 623.818 85.7635C613.558 85.7635 604.204 88.1775 595.755 93.0055C587.306 97.8335 580.567 104.874 575.538 114.128C570.509 123.382 567.994 134.245 567.994 146.717C567.994 159.39 570.509 170.455 575.538 179.909C580.567 189.163 587.306 196.305 595.755 201.334C604.204 206.162 613.558 208.576 623.818 208.576C634.077 208.576 643.432 206.162 651.881 201.334C660.531 196.305 667.37 189.163 672.4 179.909C677.429 170.455 679.943 159.491 679.943 147.019ZM768.29 37.7852C763.06 37.7852 758.634 35.9747 755.013 32.3537C751.392 28.7327 749.582 24.3071 749.582 19.0767C749.582 13.8464 751.392 9.42074 755.013 5.79974C758.634 2.17874 763.06 0.368239 768.29 0.368239C773.319 0.368239 777.544 2.17874 780.964 5.79974C784.585 9.42074 786.395 13.8464 786.395 19.0767C786.395 24.3071 784.585 28.7327 780.964 32.3537C777.544 35.9747 773.319 37.7852 768.29 37.7852ZM781.567 64.641V230H754.108V64.641H781.567ZM1027.22 61.6235C1040.09 61.6235 1051.56 64.3392 1061.62 69.7707C1071.68 75.0011 1079.62 82.9472 1085.46 93.609C1091.29 104.271 1094.21 117.246 1094.21 132.535V230H1067.05V136.457C1067.05 119.962 1062.93 107.389 1054.68 98.7387C1046.63 89.8874 1035.67 85.4617 1021.79 85.4617C1007.51 85.4617 996.14 90.0886 987.691 99.3422C979.242 108.395 975.017 121.571 975.017 138.871V230H947.86V136.457C947.86 119.962 943.736 107.389 935.488 98.7387C927.441 89.8874 916.478 85.4617 902.597 85.4617C888.314 85.4617 876.948 90.0886 868.499 99.3422C860.05 108.395 855.826 121.571 855.826 138.871V230H828.367V64.641H855.826V88.4792C861.257 79.8291 868.499 73.1906 877.552 68.5637C886.806 63.9369 896.964 61.6235 908.029 61.6235C921.909 61.6235 934.18 64.7416 944.842 70.9777C955.504 77.2139 963.45 86.367 968.68 98.437C973.307 86.7693 980.952 77.7168 991.613 71.2795C1002.28 64.8422 1014.14 61.6235 1027.22 61.6235ZM1211.37 232.716C1195.88 232.716 1181.8 229.195 1169.12 222.154C1156.65 215.114 1146.8 205.156 1139.55 192.281C1132.51 179.205 1128.99 164.118 1128.99 147.019C1128.99 130.121 1132.61 115.234 1139.86 102.36C1147.3 89.2839 1157.36 79.3262 1170.03 72.4865C1182.7 65.4457 1196.89 61.9252 1212.58 61.9252C1228.27 61.9252 1242.45 65.4457 1255.12 72.4865C1267.8 79.3262 1277.75 89.1833 1285 102.058C1292.44 114.933 1296.16 129.92 1296.16 147.019C1296.16 164.118 1292.34 179.205 1284.7 192.281C1277.25 205.156 1267.09 215.114 1254.22 222.154C1241.34 229.195 1227.06 232.716 1211.37 232.716ZM1211.37 208.576C1221.23 208.576 1230.48 206.262 1239.13 201.635C1247.78 197.009 1254.72 190.068 1259.95 180.815C1265.38 171.561 1268.1 160.296 1268.1 147.019C1268.1 133.742 1265.48 122.476 1260.25 113.223C1255.02 103.969 1248.18 97.1294 1239.73 92.7037C1231.29 88.0769 1222.13 85.7635 1212.28 85.7635C1202.22 85.7635 1192.96 88.0769 1184.51 92.7037C1176.27 97.1294 1169.63 103.969 1164.6 113.223C1159.57 122.476 1157.05 133.742 1157.05 147.019C1157.05 160.497 1159.47 171.863 1164.3 181.116C1169.33 190.37 1175.96 197.31 1184.21 201.937C1192.46 206.363 1201.51 208.576 1211.37 208.576ZM1412.83 61.6235C1432.95 61.6235 1449.24 67.7591 1461.72 80.0302C1474.19 92.1002 1480.42 109.602 1480.42 132.535V230H1453.27V136.457C1453.27 119.962 1449.14 107.389 1440.9 98.7387C1432.65 89.8874 1421.38 85.4617 1407.1 85.4617C1392.62 85.4617 1381.05 89.988 1372.4 99.0405C1363.95 108.093 1359.72 121.269 1359.72 138.57V230H1332.27V64.641H1359.72V88.1775C1365.16 79.7285 1372.5 73.1906 1381.75 68.5637C1391.21 63.9369 1401.57 61.6235 1412.83 61.6235ZM1515.02 146.717C1515.02 129.819 1518.44 115.033 1525.28 102.36C1532.12 89.4851 1541.47 79.5273 1553.34 72.4865C1565.41 65.4457 1578.89 61.9252 1593.78 61.9252C1606.65 61.9252 1618.62 64.9427 1629.68 70.9777C1640.75 76.8116 1649.2 84.5565 1655.03 94.2125V6.705H1682.79V230H1655.03V198.92C1649.6 208.777 1641.55 216.924 1630.89 223.361C1620.23 229.598 1607.76 232.716 1593.47 232.716C1578.79 232.716 1565.41 229.095 1553.34 221.853C1541.47 214.611 1532.12 204.452 1525.28 191.376C1518.44 178.3 1515.02 163.414 1515.02 146.717ZM1655.03 147.019C1655.03 134.546 1652.52 123.683 1647.49 114.43C1642.46 105.176 1635.62 98.1352 1626.97 93.3072C1618.52 88.2781 1609.17 85.7635 1598.91 85.7635C1588.65 85.7635 1579.29 88.1775 1570.84 93.0055C1562.39 97.8335 1555.66 104.874 1550.63 114.128C1545.6 123.382 1543.08 134.245 1543.08 146.717C1543.08 159.39 1545.6 170.455 1550.63 179.909C1555.66 189.163 1562.39 196.305 1570.84 201.334C1579.29 206.162 1588.65 208.576 1598.91 208.576C1609.17 208.576 1618.52 206.162 1626.97 201.334C1635.62 196.305 1642.46 189.163 1647.49 179.909C1652.52 170.455 1655.03 159.491 1655.03 147.019ZM1717.43 36.88V11.8347H1774.16V230H1746.4V36.88H1717.43ZM1814.08 36.88V11.8347H1870.81V230H1843.05V36.88H1814.08ZM1917.38 66.7532C1918.78 48.2459 1925.92 33.7619 1938.8 23.3012C1951.67 12.8406 1968.37 7.61024 1988.89 7.61024C2002.57 7.61024 2014.34 10.1248 2024.19 15.154C2034.25 19.982 2041.8 26.6205 2046.83 35.0695C2052.06 43.5185 2054.67 53.0739 2054.67 63.7358C2054.67 76.2081 2051.05 86.9705 2043.81 96.023C2036.77 105.075 2027.51 110.909 2016.05 113.524V115.033C2029.12 118.252 2039.48 124.589 2047.13 134.043C2054.77 143.498 2058.59 155.87 2058.59 171.159C2058.59 182.625 2055.98 192.985 2050.75 202.239C2045.52 211.291 2037.67 218.433 2027.21 223.663C2016.75 228.894 2004.18 231.509 1989.49 231.509C1968.17 231.509 1950.67 225.977 1936.99 214.912C1923.31 203.647 1915.67 187.755 1914.06 167.236H1940.61C1942.02 179.306 1946.95 189.163 1955.4 196.807C1963.84 204.452 1975.11 208.274 1989.19 208.274C2003.27 208.274 2013.94 204.653 2021.18 197.411C2028.62 189.968 2032.34 180.412 2032.34 168.745C2032.34 153.657 2027.31 142.794 2017.25 136.156C2007.2 129.517 1992.01 126.198 1971.69 126.198H1964.75V103.265H1971.99C1990.5 103.064 2004.48 100.046 2013.94 94.2125C2023.39 88.1775 2028.12 78.9238 2028.12 66.4515C2028.12 55.7897 2024.6 47.2401 2017.56 40.8027C2010.72 34.3654 2000.86 31.1467 1987.98 31.1467C1975.51 31.1467 1965.45 34.3654 1957.81 40.8027C1950.17 47.2401 1945.64 55.8902 1944.23 66.7532H1917.38Z" fill="white"/>
<path opacity="0.997" d="M227.886 102.628C231.489 116.076 177.753 143.89 172.764 156.888C167.775 169.886 189.096 226.512 177.42 234.094C165.744 241.677 122.686 199.167 108.782 198.438C94.8788 197.709 47.6129 235.486 36.7931 226.725C25.9734 217.963 53.0974 163.876 49.494 150.428C45.8906 136.979 -4.64318 103.701 0.346185 90.7028C5.33555 77.7051 65.1575 86.7878 76.8338 79.2051C88.5102 71.6224 104.544 13.2781 118.448 14.0068C132.351 14.7354 142.199 74.4361 153.019 83.1978C163.839 91.9595 224.282 89.1796 227.886 102.628Z" fill="#FFB500"/>
</svg>
